<svg id="图层_1" data-name="图层 1" xmlns="http://www.w3.org/2000/svg" xmlns:xlink="http://www.w3.org/1999/xlink" viewBox="0 0 400 400"><defs><style>.cls-1{fill:none;}.cls-2{fill:#333;}.cls-3{clip-path:url(#clip-path);}.cls-4{fill:#f0d000;}.cls-5{fill:#f4f0eb;}.cls-6{fill:#c1272d;}.cls-7{fill:#a67c52;}.cls-8{fill:#fff;}</style><clipPath id="clip-path"><path class="cls-1" d="M171.83,4.85h57.06c2.73.44,5.46,1,8.21,1.3,14.79,1.46,29.73,2,44.35,4.43,35.54,6,66.08,21.07,86.75,52.17,14.61,22,21.58,46.81,23.39,72.69,2,28.92,2.94,58,2.4,87-.42,22-2.2,44.2-6.34,65.74-9.13,47.48-36.14,80.57-83,95.68-18.59,6-37.77,8.53-57.19,9.69-6.2.37-12.38,1.07-18.57,1.62H171.83c-4.24-.51-8.49-1-12.74-1.52-15.59-1.8-31.42-2.44-46.74-5.6-45.53-9.38-78.29-34.65-94-79.73-6.81-19.54-9.55-39.83-10.86-60.39-.4-6.44-1.08-12.86-1.63-19.29V171.38c.5-4.27,1-8.53,1.51-12.8,1.79-15.64,2.44-31.53,5.58-46.9C22,67.35,46.07,34.77,89.4,18.48c20.36-7.66,41.64-10.62,63.22-12C159,6.09,165.43,5.41,171.83,4.85Z"/></clipPath></defs><path class="cls-2" d="M171.83,4.85h57.06c2.73.44,5.46,1,8.21,1.3,14.79,1.46,29.73,2,44.35,4.43,35.54,6,66.08,21.07,86.75,52.17,14.61,22,21.58,46.81,23.39,72.69,2,28.92,2.94,58,2.4,87-.42,22-2.2,44.2-6.34,65.74-9.13,47.48-36.14,80.57-83,95.68-18.59,6-37.77,8.53-57.19,9.69-6.2.37-12.38,1.07-18.57,1.62H171.83c-4.24-.51-8.49-1-12.74-1.52-15.59-1.8-31.42-2.44-46.74-5.6-45.53-9.38-78.29-34.65-94-79.73-6.81-19.54-9.55-39.83-10.86-60.39-.4-6.44-1.08-12.86-1.63-19.29V171.38c.5-4.27,1-8.53,1.51-12.8,1.79-15.64,2.44-31.53,5.58-46.9C22,67.35,46.07,34.77,89.4,18.48c20.36-7.66,41.64-10.62,63.22-12C159,6.09,165.43,5.41,171.83,4.85Z"/><g class="cls-3"><rect class="cls-4" x="-102" y="272.66" width="604" height="31.23" rx="15.62"/><rect class="cls-4" x="62.61" y="173.27" width="499.78" height="31.23" rx="15.62" transform="translate(123.61 501.39) rotate(-90)"/></g><g class="cls-3"><path class="cls-5" d="M218.31,388.26c-8.62-10-20.1-17.5-33.79-22.45q-6.27,4.31-12.86,8.23l-1,.61c.71,7.13,3.78,16.5,8.27,26.49h41.39Q219.46,394.84,218.31,388.26Z"/><path class="cls-6" d="M253.19,271.26a151.85,151.85,0,0,1-17.86,9.57q-5.75,2.6-11.46,4.54a85.48,85.48,0,0,1-55.33,7.14q-4.38-.88-8.78-2.18c-7.87,9.28-12,23.45-1.38,28.94-9.59,11.93-21.52,26-8,34.86,8.53,10.63,4.08,23.76,1.79,30.39q9.52-4.61,18.49-9.87l1-.61q6.59-3.92,12.86-8.23c28.25-19.44,51.31-45.05,66.82-79.62,4.69,14,10,25.12,15.91,33.6,16.35,23.52,37.09,26.77,61,15.57C307.6,305,284.57,279.52,253.19,271.26Z"/><path class="cls-7" d="M353.24,220.05c-.94-2-14.29-29.69-26.47-59.33C312.4,125.73,276.8,79.1,269,74,191.13,23,113.09,29.82,66.31,154.8A74.9,74.9,0,0,0,43.4,176.08c8.61-6.14,29.76-14.83,36.29-12.69,19.55,6.43,38.27-8.07,47-26l19.67-42.91c8.83-10.26,13.17-9.36,13.41,1.79l1.78,61.68c-.37,29.11,13.28,41.78,37.55,42,39.46,12.91,53.06,38.6,34,80.44-.68.42-1.35.82-2,1.21-2.33,1.36-4.66,2.59-7,3.72l-.11.06q5.72-2,11.46-4.54a151.85,151.85,0,0,0,17.86-9.57,188.89,188.89,0,0,0,16.92-11.88C324.87,320.13,371.7,258.65,353.24,220.05ZM105.93,141.39c-2.19,12.39-8.49,21.64-14.08,20.66-4.82-.85-7.53-9-6.79-19.21a4.43,4.43,0,0,1,.57-4.71c0-.11,0-.21.05-.31,2.19-12.4,8.49-21.65,14.08-20.67S108.12,129,105.93,141.39Zm103.65,30.33c-2.74,15.56-10.48,27.19-17.29,26-6.21-1.09-9.5-12.52-7.93-26.35a5.31,5.31,0,0,1-1.4-3.6,5.38,5.38,0,0,1,2.9-4.77c3.3-13.3,10.22-22.7,16.37-21.61C209,142.58,212.33,156.16,209.58,171.72Z"/><path class="cls-5" d="M199.05,199.94c-24.27-.23-37.92-12.9-37.55-42l-1.78-61.68c-.24-11.15-4.58-12-13.41-1.79l-19.67,42.91c-8.68,17.95-27.4,32.45-46.95,26-6.53-2.14-27.68,6.55-36.29,12.69a11.82,11.82,0,0,0-3.46,3.3c-14.44,27-12,38-3.58,54.52C48,256.47,78.07,265,107.87,261.61c17.4,13.8,34.7,23.64,51.89,28.72q4.4,1.29,8.78,2.18a85.48,85.48,0,0,0,55.33-7.14l.11-.06c2.34-1.13,4.67-2.36,7-3.72.68-.39,1.35-.79,2-1.21C252.11,238.54,238.51,212.85,199.05,199.94ZM70.17,184.57c2.41-13.87,20.83-22.26,41.14-18.73s34.83,17.64,32.42,31.51-20.83,22.26-41.14,18.74S67.76,198.45,70.17,184.57Z"/><path class="cls-2" d="M89.1,136.47a4.47,4.47,0,1,1-4,6.37c-.74,10.18,2,18.36,6.79,19.21,5.59,1,11.89-8.27,14.08-20.66s-.58-23.25-6.17-24.24-11.89,8.27-14.08,20.67c0,.1,0,.2-.05.31A4.46,4.46,0,0,1,89.1,136.47Z"/><path class="cls-8" d="M85.06,142.84c.11-1.53.3-3.11.57-4.71a4.43,4.43,0,0,0-.57,4.71Z"/><path class="cls-8" d="M89.1,145.41a4.47,4.47,0,1,0-3.47-7.28c-.27,1.6-.46,3.18-.57,4.71A4.45,4.45,0,0,0,89.1,145.41Z"/><path class="cls-2" d="M193.68,167.76a5.35,5.35,0,0,1-9.32,3.6c-1.57,13.83,1.72,25.26,7.93,26.35,6.81,1.2,14.55-10.43,17.29-26s-.55-29.14-7.35-30.34c-6.15-1.09-13.07,8.31-16.37,21.61a5.36,5.36,0,0,1,7.82,4.77Z"/><path class="cls-8" d="M184.94,167.37c.26-1.5.57-3,.92-4.38a5.38,5.38,0,0,0-2.9,4.77,5.31,5.31,0,0,0,1.4,3.6C184.51,170.05,184.7,168.72,184.94,167.37Z"/><path class="cls-8" d="M184.36,171.36a5.36,5.36,0,1,0,1.5-8.37c-.35,1.42-.66,2.88-.92,4.38C184.7,168.72,184.51,170.05,184.36,171.36Z"/><path class="cls-2" d="M102.59,216.09c20.31,3.52,38.73-4.86,41.14-18.74s-12.1-28-32.42-31.51-38.73,4.86-41.14,18.73S82.27,212.56,102.59,216.09Zm-8.12-48.33c2.46,0,4.46,1.2,4.46,2.68s-2,2.68-4.46,2.68S90,171.92,90,170.44,92,167.76,94.47,167.76Z"/><ellipse class="cls-8" cx="94.47" cy="170.44" rx="4.47" ry="2.68"/><path class="cls-7" d="M289.77,347a73.94,73.94,0,0,1-22.52-27.19c-5.89-8.48-11.22-19.58-15.91-33.6-15.51,34.57-38.57,60.18-66.82,79.62,13.69,4.95,25.17,12.48,33.79,22.45q1.16,6.58,2,12.88h107C321.24,382.84,309.14,363.72,289.77,347Z"/></g><path class="cls-8" d="M133.72,356.22v18.63l-2.21.46a15.66,15.66,0,0,1-3.14.29q-3.42,0-4.76-1.29c-.89-.86-1.33-2.33-1.33-4.39V323.31a3.73,3.73,0,0,1,.87-2.67,6.49,6.49,0,0,1,2.47-1.5c.94-.28,2-.55,3.13-.8s2.32-.46,3.55-.62,2.46-.28,3.72-.34,2.43-.08,3.55-.08q11.69,0,17.54,5.26T163,336.68q0,8.94-5.77,14.24t-16.54,5.3Zm6.18-9.69c3.56,0,6.36-.8,8.4-2.42s3-4.09,3-7.43-1-5.64-2.89-7.23-4.72-2.38-8.39-2.38a34.46,34.46,0,0,0-6.35.5v19Z"/><path class="cls-8" d="M181.41,375.31a13.32,13.32,0,0,1-2.92.29c-2.17,0-3.74-.4-4.72-1.21s-1.46-2.24-1.46-4.3V314.63a8.29,8.29,0,0,1,2.13-.55,19.13,19.13,0,0,1,2.88-.21,7.45,7.45,0,0,1,4.68,1.21c1,.81,1.5,2.22,1.5,4.22v55.55Z"/><path class="cls-8" d="M233.33,369.88a6.17,6.17,0,0,1-2.55,2.55,25,25,0,0,1-6.47,2.8,32.08,32.08,0,0,1-8.9,1.12,30,30,0,0,1-8.39-1.08,17.06,17.06,0,0,1-6.35-3.3,14,14,0,0,1-4-5.64,21.84,21.84,0,0,1-1.38-8.18v-27a8.77,8.77,0,0,1,2.09-.54,19.47,19.47,0,0,1,3-.21,7.69,7.69,0,0,1,4.55,1.13c1,.75,1.54,2.19,1.54,4.3V358c0,3.17.78,5.46,2.34,6.85s3.79,2.09,6.69,2.09a16.68,16.68,0,0,0,4.59-.55,9.08,9.08,0,0,0,2.84-1.21v-34a8.77,8.77,0,0,1,2.09-.54,18.81,18.81,0,0,1,2.92-.21,7.62,7.62,0,0,1,4.68,1.13c.94.75,1.42,2.19,1.42,4.3v30.49A8.11,8.11,0,0,1,233.33,369.88Z"/><path class="cls-8" d="M277.72,362.49a12.36,12.36,0,0,1-4.55,10.19q-4.55,3.68-13.4,3.67a33.92,33.92,0,0,1-6.56-.58,20.53,20.53,0,0,1-5.1-1.63,9.37,9.37,0,0,1-3.34-2.59,5.35,5.35,0,0,1-1.21-3.38,6.28,6.28,0,0,1,.71-3.05,6.05,6.05,0,0,1,2-2.13,31.38,31.38,0,0,0,5.73,3,19.74,19.74,0,0,0,7.47,1.3,9.73,9.73,0,0,0,5.43-1.25,4,4,0,0,0,1.84-3.51c0-2.51-1.76-4.18-5.26-5l-4.93-1.17q-6.6-1.59-9.69-4.76a11.59,11.59,0,0,1-3.09-8.44,12,12,0,0,1,4.59-9.77q4.59-3.76,12.87-3.76a31.23,31.23,0,0,1,5.84.5,18.8,18.8,0,0,1,4.68,1.46,8.73,8.73,0,0,1,3.09,2.3,4.9,4.9,0,0,1,1.09,3.17,5.88,5.88,0,0,1-.71,2.93,6.17,6.17,0,0,1-1.63,1.92,22.86,22.86,0,0,0-2.09-1.09,19.76,19.76,0,0,0-2.8-1,27.59,27.59,0,0,0-3.3-.76,21.34,21.34,0,0,0-3.42-.29,10.62,10.62,0,0,0-5.35,1.13,3.6,3.6,0,0,0-1.92,3.3,3.35,3.35,0,0,0,1.09,2.59,8.89,8.89,0,0,0,3.84,1.67l4.26,1.09q7.35,1.76,10.61,5.17A12.35,12.35,0,0,1,277.72,362.49Z"/></svg>